<svg fill="none" height="24" viewBox="0 0 24 24" width="24" xmlns="http://www.w3.org/2000/svg"><path d="m3 15.024v-5.024h9v-7h3.024c4.9212 0 5.976 1.05476 5.976 5.976v5.024h-9v7h-3.024c-4.92124 0-5.976-1.0548-5.976-5.976z" fill="#323232" opacity=".1"/><g stroke="#323232" stroke-width="2"><path d="m3 8.976c0-4.92124 1.05476-5.976 5.976-5.976h6.048c4.9212 0 5.976 1.05476 5.976 5.976v6.048c0 4.9212-1.0548 5.976-5.976 5.976h-6.048c-4.92124 0-5.976-1.0548-5.976-5.976z"/><path d="m12 3v18" stroke-linecap="round" stroke-linejoin="round"/><path d="m3 10h9" stroke-linecap="round"/><path d="m12 14h9" stroke-linecap="round"/></g></svg>